<svg width="247" height="312" viewBox="0 0 247 312" fill="none" xmlns="http://www.w3.org/2000/svg">
<g filter="url(#filter0_dd_71_276)">
<path d="M206.572 9H40.981C24.7769 9 14.1331 25.924 21.1518 40.5292L69.2661 140.649C72.2482 146.855 72.1534 154.098 69.0099 160.223L22.4457 250.955C14.9323 265.595 25.563 283 42.0186 283H205.496C222.066 283 232.688 265.375 224.948 250.723L177.255 160.448C173.955 154.201 173.856 146.749 176.989 140.416L226.291 40.755C233.524 26.1328 222.885 9 206.572 9Z" fill="#3E3F5B"/>
<path d="M206.572 9H40.981C24.7769 9 14.1331 25.924 21.1518 40.5292L69.2661 140.649C72.2482 146.855 72.1534 154.098 69.0099 160.223L22.4457 250.955C14.9323 265.595 25.563 283 42.0186 283H205.496C222.066 283 232.688 265.375 224.948 250.723L177.255 160.448C173.955 154.201 173.856 146.749 176.989 140.416L226.291 40.755C233.524 26.1328 222.885 9 206.572 9Z" stroke="#73749F" stroke-width="10" stroke-linecap="round" stroke-linejoin="round" stroke-dasharray="10 10"/>
</g>
<path d="M93.5 135.5L71.2742 81.523C70.1901 78.8903 72.1257 76 74.9729 76H173.073C175.908 76 177.843 78.8673 176.783 81.4963L155 135.5C150.5 151 98 148 93.5 135.5Z" fill="url(#paint0_linear_71_276)"/>
<path d="M69 246L179 246" stroke="url(#paint1_linear_71_276)" stroke-width="35" stroke-linecap="round"/>
<defs>
<filter id="filter0_dd_71_276" x="0.880859" y="0.5" width="245.748" height="311" filterUnits="userSpaceOnUse" color-interpolation-filters="sRGB">

<feFlood flood-opacity="0" result="BackgroundImageFix"/>
<feColorMatrix in="SourceAlpha" type="matrix" values="0 0 0 0 0 0 0 0 0 0 0 0 0 0 0 0 0 0 127 0" result="hardAlpha"/>
<feOffset dy="10"/>
<feGaussianBlur stdDeviation="6.75"/>
<feComposite in2="hardAlpha" operator="out"/>
<feColorMatrix type="matrix" values="0 0 0 0 0 0 0 0 0 0 0 0 0 0 0 0 0 0 0.25 0"/>
<feBlend mode="normal" in2="BackgroundImageFix" result="effect1_dropShadow_71_276"/>
<feColorMatrix in="SourceAlpha" type="matrix" values="0 0 0 0 0 0 0 0 0 0 0 0 0 0 0 0 0 0 127 0" result="hardAlpha"/>
<feOffset dy="10"/>
<feGaussianBlur stdDeviation="6.75"/>
<feComposite in2="hardAlpha" operator="out"/>
<feColorMatrix type="matrix" values="0 0 0 0 0 0 0 0 0 0 0 0 0 0 0 0 0 0 0.25 0"/>
<feBlend mode="normal" in2="effect1_dropShadow_71_276" result="effect2_dropShadow_71_276"/>
<feBlend mode="normal" in="SourceGraphic" in2="effect2_dropShadow_71_276" result="shape"/>
</filter>
<linearGradient id="paint0_linear_71_276" x1="124" y1="76" x2="124" y2="146" gradientUnits="userSpaceOnUse">
<stop stop-color="#528CF7"/>
<stop offset="1" stop-color="#870ADA"/>
</linearGradient>
<linearGradient id="paint1_linear_71_276" x1="124.451" y1="226" x2="124.451" y2="269.5" gradientUnits="userSpaceOnUse">
<stop stop-color="#528CF7"/>
<stop offset="1" stop-color="#870ADA"/>
</linearGradient>
</defs>
</svg>
